<svg width="36" height="36" viewBox="0 0 36 36" fill="none" xmlns="http://www.w3.org/2000/svg">
<path d="M35.0202 26.4204L29.9963 21.3965C28.202 19.6022 25.1518 20.32 24.4341 22.6524C23.8958 24.2673 22.1015 25.1645 20.4867 24.8055C16.8982 23.9084 12.0537 19.2434 11.1566 15.4754C10.6183 13.8605 11.6949 12.0663 13.3097 11.5281C15.6422 10.8104 16.3599 7.76014 14.5657 5.96589L9.54178 0.941983C8.10638 -0.313994 5.95328 -0.313994 4.6973 0.941983L1.28822 4.35106C-2.12086 7.93957 1.64707 17.4491 10.0801 25.8821C18.513 34.3151 28.0226 38.2625 31.6111 34.6739L35.0202 31.2649C36.2762 29.8295 36.2762 27.6763 35.0202 26.4204Z" fill="#A6A6A6"/>
</svg>
