<svg width="46" height="46" viewBox="0 0 46 46" fill="none" xmlns="http://www.w3.org/2000/svg">
<g clip-path="url(#clip0)">
<path d="M38.4033 25.9697C37.9015 25.9697 37.4136 25.7062 37.1494 25.2384C34.2684 20.1285 28.8469 16.9545 23 16.9545C17.1531 16.9545 11.7316 20.1285 8.85031 25.2384C8.46076 25.9308 7.58338 26.1733 6.892 25.7844C6.20062 25.3942 5.95636 24.5175 6.34592 23.8261C9.73612 17.8143 16.1178 14.0795 23 14.0795C29.8822 14.0795 36.2639 17.8143 39.6541 23.8261C40.0437 24.5175 39.7994 25.3942 39.108 25.7844C38.8845 25.9101 38.6427 25.9697 38.4033 25.9697Z" fill="#2FB46C"/>
<path d="M32.2427 29.4353C31.7409 29.4353 31.2531 29.1721 30.9891 28.7043C29.3628 25.8184 26.3011 24.0261 23 24.0261C19.699 24.0261 16.6373 25.8187 15.011 28.7043C14.6214 29.3957 13.7454 29.6406 13.0526 29.2504C12.3613 28.8608 12.117 27.9841 12.5066 27.292C14.6418 23.5046 18.663 21.1511 23 21.1511C27.3368 21.1511 31.3583 23.5046 33.4932 27.292C33.8827 27.9841 33.6388 28.8608 32.9471 29.2504C32.7239 29.3756 32.4814 29.4353 32.2427 29.4353Z" fill="#2FB46C"/>
<path d="M44.563 22.5045C44.0611 22.5045 43.5729 22.2413 43.309 21.7731C39.1738 14.4389 31.3917 9.88288 22.9991 9.88288C14.6064 9.88288 6.82438 14.4389 2.68875 21.7731C2.2999 22.4645 1.42252 22.7088 0.73044 22.3192C0.0390635 21.929 -0.205199 21.0523 0.184358 20.3609C4.82886 12.1248 13.5704 7.00787 22.9991 7.00787C32.4277 7.00787 41.1689 12.1248 45.8138 20.3609C46.2033 21.0523 45.9591 21.929 45.2677 22.3189C45.0445 22.4449 44.8023 22.5045 44.563 22.5045Z" fill="#2FB46C"/>
<path d="M27.3125 34.7098C27.3125 37.0913 25.3816 39.0223 23 39.0223C20.6181 39.0223 18.6875 37.0913 18.6875 34.7098C18.6875 32.3279 20.6181 30.3973 23 30.3973C25.3816 30.3973 27.3125 32.3279 27.3125 34.7098Z" fill="#2FB46C"/>
</g>
<defs>
<clipPath id="clip0">
<rect width="46" height="46" fill="white"/>
</clipPath>
</defs>
</svg>
