<svg width="46" height="46" viewBox="0 0 46 46" fill="none" xmlns="http://www.w3.org/2000/svg">
<g clip-path="url(#clip0)">
<path d="M44.6523 37.9571H24.2578V35.7865H24.3892C25.1334 35.7865 25.7368 35.1831 25.7368 34.4388C25.7368 33.6946 25.1334 33.0912 24.3892 33.0912H21.4311C20.6869 33.0912 20.0835 33.6946 20.0835 34.4388C20.0835 35.1831 20.6869 35.7865 21.4311 35.7865H21.5625V37.9571H17.4052V13.6813C17.4052 10.5963 19.915 8.08649 23 8.08649C26.085 8.08649 28.5948 10.5964 28.5948 13.6813V17.6985C28.5948 18.4428 29.1982 19.0462 29.9425 19.0462H35.3331C36.0774 19.0462 36.6808 18.4428 36.6808 17.6985V13.6813C36.6808 6.13769 30.5436 0.000549316 22.9999 0.000549316C15.4563 0.000549316 9.31922 6.13769 9.31922 13.6813V37.9571H5.07276V35.7865H5.20402C5.94829 35.7865 6.55168 35.1831 6.55168 34.4388C6.55168 33.6946 5.94829 33.0912 5.20402 33.0912H2.24609C1.50183 33.0912 0.898438 33.6946 0.898438 34.4388C0.898438 35.1831 1.50183 35.7865 2.24609 35.7865H2.37745V37.9571H1.34766C0.603391 37.9571 0 38.5605 0 39.3048V44.6517C0 45.396 0.603391 45.9994 1.34766 45.9994H44.6523C45.3966 45.9994 46 45.396 46 44.6517V39.3048C46 38.5605 45.3966 37.9571 44.6523 37.9571ZM12.0145 13.6813C12.0145 7.62388 16.9426 2.69586 23 2.69586C29.0574 2.69586 33.9856 7.62388 33.9856 13.6813V16.3509H31.2902V13.6813C31.2902 9.11008 27.5713 5.39117 23.0001 5.39117C18.4288 5.39117 14.7099 9.11017 14.7099 13.6813V37.9571H12.0146V13.6813H12.0145ZM43.3047 43.304H2.69531V40.6524H43.3047V43.304Z" fill="#2FB46C"/>
<path d="M27.3341 27.9993C27.1625 27.4614 26.6795 27.0734 26.1115 27.0446C25.5481 27.0159 25.0165 27.3559 24.8005 27.8753C24.5851 28.3929 24.7224 29.0134 25.14 29.3892C25.558 29.7654 26.1833 29.8448 26.68 29.5787C27.2419 29.2777 27.5155 28.6082 27.3341 27.9993Z" fill="#2FB46C"/>
<path d="M27.5605 24.4073C28.0976 24.2443 28.4885 23.7463 28.515 23.1846C28.5415 22.622 28.2048 22.0896 27.6844 21.8737C27.1644 21.658 26.5488 21.7971 26.1704 22.2133C25.7916 22.63 25.7169 23.2575 25.981 23.7533C26.2808 24.3161 26.9518 24.589 27.5605 24.4073Z" fill="#2FB46C"/>
<path d="M39.9742 32.3219C39.4127 32.3789 38.9383 32.7883 38.7997 33.3353C38.6617 33.8804 38.8908 34.4725 39.3588 34.7836C39.8261 35.0943 40.4577 35.0818 40.9087 34.7454C41.3606 34.4084 41.559 33.8115 41.3956 33.2715C41.2122 32.666 40.605 32.2567 39.9742 32.3219Z" fill="#2FB46C"/>
<path d="M38.8502 27.0496C38.2887 27.1067 37.8142 27.5159 37.6755 28.0631C37.5374 28.6078 37.7664 29.1992 38.2339 29.5105C38.7035 29.823 39.3308 29.8074 39.7847 29.4727C40.2379 29.1386 40.4346 28.5371 40.2715 27.9993C40.088 27.3937 39.4814 26.9845 38.8502 27.0496Z" fill="#2FB46C"/>
<path d="M36.614 22.6033C36.3962 23.1195 36.5374 23.7427 36.9535 24.1172C37.3716 24.4934 37.9969 24.5729 38.4936 24.3068C38.9889 24.0415 39.2752 23.4765 39.1912 22.9201C39.1072 22.3637 38.674 21.9069 38.1216 21.7974C37.4983 21.6739 36.8568 22.0154 36.614 22.6033Z" fill="#2FB46C"/>
<path d="M33.845 33.6075C33.7299 33.0548 33.2816 32.6223 32.7215 32.5375C32.1655 32.4533 31.5998 32.74 31.3357 33.2355C31.0713 33.7316 31.1455 34.3581 31.5247 34.7754C31.9034 35.1922 32.5189 35.3302 33.0391 35.1151C33.6305 34.8703 33.9619 34.2317 33.845 33.6075Z" fill="#2FB46C"/>
<path d="M33.8648 28.3469C33.8067 27.7866 33.3982 27.3108 32.8513 27.1731C32.3075 27.0363 31.713 27.262 31.4031 27.7315C31.0914 28.2039 31.1068 28.8251 31.4408 29.2818C31.7721 29.7349 32.38 29.933 32.9152 29.7683C33.5199 29.582 33.9298 28.9801 33.8648 28.3469Z" fill="#2FB46C"/>
<path d="M33.8648 22.9563C33.8067 22.396 33.3982 21.9201 32.8513 21.7825C32.3075 21.6457 31.713 21.8713 31.4031 22.3409C31.0914 22.8133 31.1068 23.4345 31.4408 23.8912C31.7721 24.3443 32.38 24.5424 32.9152 24.3776C33.5199 24.1914 33.9298 23.5894 33.8648 22.9563Z" fill="#2FB46C"/>
</g>
<defs>
<clipPath id="clip0">
<rect width="46" height="46" fill="white"/>
</clipPath>
</defs>
</svg>
