<svg width="46" height="46" viewBox="0 0 46 46" fill="none" xmlns="http://www.w3.org/2000/svg">
<g clip-path="url(#clip0)">
<path d="M44.5351 0.142446C43.8692 -0.190065 43.0599 0.0804541 42.7275 0.746466L30.4249 25.3681L28.0168 24.1619C26.019 23.1611 23.5922 23.968 22.5912 25.9661L21.3842 28.376C18.7296 33.6755 9.84931 34.8543 9.76126 34.8654C9.17189 34.9387 8.69994 35.389 8.59922 35.9744C8.4986 36.5596 8.79284 37.1418 9.32381 37.4078L15.762 40.6327C16.9244 41.215 18.2006 41.4451 19.4629 41.3139C19.3131 41.9249 19.6063 42.5582 20.1683 42.8398L26.1931 45.8575C26.6858 46.1043 27.2792 46.0263 27.6913 45.6605C27.9209 45.4568 33.3419 40.6132 35.8435 35.6187L37.0507 33.2088C38.0489 31.2156 37.2397 28.7818 35.2464 27.7833L32.8347 26.5753L45.1391 1.9501C45.4715 1.28418 45.2011 0.474778 44.5351 0.142446ZM26.5639 43.0286L22.5805 41.0334L23.184 39.8284C23.4282 39.3411 23.3546 38.7546 22.9979 38.3426C22.641 37.9305 22.0711 37.774 21.5539 37.946L20.0556 38.4442C19.031 38.785 17.935 38.7063 16.9692 38.2226L13.9076 36.6891C16.8791 35.7938 20.859 34.0389 23.1073 30.7463L32.7801 35.5914C30.8798 38.7474 27.8844 41.7681 26.5639 43.0286ZM34.6407 32.0017L34.0371 33.2066L24.3975 28.3783L25.0012 27.1733C25.3345 26.5076 26.1433 26.2381 26.8097 26.5719C28.5504 27.4438 32.8347 29.5897 34.0394 30.1932C34.7038 30.526 34.9736 31.3373 34.6407 32.0017Z" fill="#2FB46C"/>
<path d="M15.543 46C16.2873 46 16.8906 45.3966 16.8906 44.6523C16.8906 43.9081 16.2873 43.3047 15.543 43.3047C14.7987 43.3047 14.1953 43.9081 14.1953 44.6523C14.1953 45.3966 14.7987 46 15.543 46Z" fill="#2FB46C"/>
<path d="M2.06641 37.9141C2.8107 37.9141 3.41406 37.3107 3.41406 36.5664C3.41406 35.8221 2.8107 35.2188 2.06641 35.2188C1.32212 35.2188 0.71875 35.8221 0.71875 36.5664C0.71875 37.3107 1.32212 37.9141 2.06641 37.9141Z" fill="#2FB46C"/>
<path d="M7.45703 40.6094C8.20132 40.6094 8.80469 40.006 8.80469 39.2617C8.80469 38.5174 8.20132 37.9141 7.45703 37.9141C6.71274 37.9141 6.10938 38.5174 6.10938 39.2617C6.10938 40.006 6.71274 40.6094 7.45703 40.6094Z" fill="#2FB46C"/>
<path d="M10.1523 43.3047H4.76172C4.01862 43.3047 3.41406 42.7001 3.41406 41.957C3.41406 41.2128 2.81067 40.6094 2.06641 40.6094C1.32214 40.6094 0.71875 41.2128 0.71875 41.957C0.71875 44.1863 2.53243 46 4.76172 46H10.1523C10.8966 46 11.5 45.3966 11.5 44.6523C11.5 43.9081 10.8966 43.3047 10.1523 43.3047Z" fill="#2FB46C"/>
</g>
<defs>
<clipPath id="clip0">
<rect width="46" height="46" fill="white"/>
</clipPath>
</defs>
</svg>
