<svg width="46" height="46" viewBox="0 0 46 46" fill="none" xmlns="http://www.w3.org/2000/svg">
<path d="M39.8752 0H6.19415C3.99464 0 2.20551 1.78564 2.20551 3.98085V42.0191C2.20551 44.2144 3.99464 46 6.19415 46H39.8752C42.0747 46 43.8638 44.2144 43.8638 42.0191V3.98085C43.8638 1.78564 42.0747 0 39.8752 0V0ZM4.8646 3.98085C4.8646 3.24911 5.46098 2.6539 6.19415 2.6539H39.8752C40.6083 2.6539 41.2047 3.24911 41.2047 3.98085V9.2883H4.8646V3.98085ZM41.2047 42.0191C41.2047 42.7509 40.6083 43.3461 39.8752 43.3461H6.19415C5.46098 43.3461 4.8646 42.7509 4.8646 42.0191V11.9422H41.2047V42.0191Z" fill="#2FB46C"/>
<path d="M31.8968 4.64417H29.2384C28.5042 4.64417 27.9089 5.23833 27.9089 5.97112C27.9089 6.7039 28.5042 7.29807 29.2384 7.29807H31.8968C32.631 7.29807 33.2264 6.7039 33.2264 5.97112C33.2264 5.23833 32.631 4.64417 31.8968 4.64417Z" fill="#2FB46C"/>
<path d="M38.989 4.64417H36.3306C35.5964 4.64417 35.0011 5.23833 35.0011 5.97112C35.0011 6.7039 35.5964 7.29807 36.3306 7.29807H38.989C39.7233 7.29807 40.3182 6.7039 40.3182 5.97112C40.3182 5.23833 39.7233 4.64417 38.989 4.64417Z" fill="#2FB46C"/>
<path d="M10.1827 27.6441C10.1827 34.7169 15.9479 40.4711 23.0344 40.4711C30.1214 40.4711 35.8865 34.7169 35.8865 27.6441C35.8865 27.2999 35.8724 26.9587 35.8457 26.6215C35.8457 26.6197 35.8453 26.618 35.8453 26.6166C35.3189 20.0225 29.7747 14.8172 23.0344 14.8172C16.2946 14.8172 10.7503 20.0225 10.2239 26.6166C10.2235 26.618 10.2235 26.6197 10.2235 26.6215C10.1968 26.9587 10.1827 27.2999 10.1827 27.6441ZM23.0344 37.8172C17.6424 37.8172 13.2156 33.6167 12.8647 28.3225C13.1516 28.4405 13.4059 28.5963 13.696 28.7742C14.4801 29.2561 15.4566 29.8559 17.2732 29.8559C19.0898 29.8559 20.0659 29.2564 20.8504 28.7746C21.5006 28.3752 21.97 28.0867 23.0341 28.0867C24.0981 28.0867 24.5679 28.3752 25.2181 28.7746C26.0026 29.2561 26.9791 29.8559 28.7957 29.8559C30.6123 29.8559 31.5888 29.2564 32.3733 28.7746C32.6634 28.5963 32.9176 28.4405 33.2042 28.3225C32.8536 33.6167 28.4268 37.8172 23.0344 37.8172ZM23.0344 17.4711C27.9539 17.4711 32.0705 20.9673 33.021 25.6009C32.1225 25.8136 31.5068 26.1905 30.9797 26.5141C30.3295 26.9135 29.8598 27.202 28.7957 27.202C27.7316 27.202 27.2618 26.9135 26.6117 26.5141C25.8272 26.0322 24.851 25.4324 23.0341 25.4324C21.2175 25.4324 20.2414 26.0322 19.4569 26.5141C18.8067 26.9135 18.3369 27.202 17.2732 27.202C16.2091 27.202 15.7393 26.9135 15.0892 26.5141C14.5621 26.1902 13.9467 25.8132 13.0482 25.6009C13.9987 20.9673 18.1154 17.4711 23.0344 17.4711Z" fill="#2FB46C"/>
</svg>
