<svg width="46" height="46" viewBox="0 0 46 46" fill="none" xmlns="http://www.w3.org/2000/svg">
<g clip-path="url(#clip0)">
<path d="M44.5558 28.7761C43.6357 28.0047 42.4292 27.6827 41.2456 27.8923C39.3795 28.223 37.775 28.3906 36.4766 28.3906C31.3707 28.3906 23.5048 25.7906 23.4261 25.7645C23.0875 25.6516 15.069 23 9.52344 23C7.81793 23 5.71029 23.2464 3.2589 23.7323C1.37057 24.1066 0 25.7748 0 27.6989V40.5195C0 42.7488 1.81368 44.5625 4.04297 44.5625H41.957C44.1863 44.5625 46 42.7488 46 40.5195V31.8718C46 30.6739 45.4736 29.5455 44.5558 28.7761ZM43.3047 40.5195C43.3047 41.2626 42.7001 41.8672 41.957 41.8672H4.04297C3.29987 41.8672 2.69531 41.2626 2.69531 40.5195V27.6989C2.69531 27.0573 3.15271 26.501 3.78296 26.3761C6.03004 25.9308 8.01505 25.6953 9.52344 25.6953C14.6293 25.6953 22.4952 28.2953 22.5739 28.3214C22.9125 28.4344 30.931 31.0859 36.4766 31.0859C37.9322 31.0859 39.6949 30.9044 41.7159 30.5462C42.1184 30.4748 42.5119 30.5798 42.8241 30.8415C43.0036 30.992 43.3047 31.3258 43.3047 31.8718V40.5195Z" fill="#2FB46C"/>
<path d="M5.48047 29.9625H8.17578V37.8242H5.48047V29.9625Z" fill="#2FB46C"/>
<path d="M10.8711 29.96H13.5664V37.8242H10.8711V29.96Z" fill="#2FB46C"/>
<path d="M16.2617 31.0851H18.957V37.8242H16.2617V31.0851Z" fill="#2FB46C"/>
<path d="M21.6523 32.6915H24.3477V37.8242H21.6523V32.6915Z" fill="#2FB46C"/>
<path d="M27.043 34.0898H29.7383V37.8241H27.043V34.0898Z" fill="#2FB46C"/>
<path d="M32.4336 34.9817H35.1289V37.8242H32.4336V34.9817Z" fill="#2FB46C"/>
<path d="M37.8242 34.9817H40.5195V37.8242H37.8242V34.9817Z" fill="#2FB46C"/>
<path d="M27.9959 18.5623L26.0901 16.6564L24.3477 18.3988V1.4375H21.6523V18.3988L19.9099 16.6564L18.0042 18.5623L23 23.5582L27.9959 18.5623Z" fill="#2FB46C"/>
<path d="M41.4724 21.2577L39.5666 19.3517L37.8242 21.0941V1.4375H35.1289V21.0941L33.3865 19.3517L31.4807 21.2577L36.4766 26.2535L41.4724 21.2577Z" fill="#2FB46C"/>
<path d="M14.5193 15.867L12.6135 13.9611L10.8711 15.7035V1.4375H8.17578V15.7035L6.43335 13.9611L4.52759 15.867L9.52344 20.8629L14.5193 15.867Z" fill="#2FB46C"/>
</g>
<defs>
<clipPath id="clip0">
<rect width="46" height="46" fill="white"/>
</clipPath>
</defs>
</svg>
